<svg width="80" height="51" viewBox="0 0 80 51" fill="none" xmlns="http://www.w3.org/2000/svg">
<g clip-path="url(#clip0_133_5890)">
<path d="M54.0189 26.2834C46.7746 35.4177 35.2822 33.9401 29.6477 25.2535C21.1961 33.4476 13.3705 34.7013 6.21565 29.0595C-0.178988 23.9998 -1.87826 15.4476 2.19105 8.37295C6.12621 1.43265 14.4437 -1.79123 21.5538 0.98489C19.7204 2.82071 18.513 4.83564 15.2039 4.74608C9.56948 4.61176 4.91883 9.35803 4.47165 14.8655C3.97976 20.373 8.13851 26.0595 13.6388 27.4924C17.8423 28.567 21.4197 27.4028 24.371 24.4028C27.3224 21.4476 28.5745 17.8207 27.5013 13.6565C26.8752 11.2834 26.4728 11.1938 24.8182 12.8506C22.5823 15.0894 20.257 17.2834 18.0658 19.6565C16.9926 20.8207 16.4113 20.4177 15.6064 19.4774C14.9356 18.6715 13.9071 18.1789 15.2486 16.9252C19.0049 13.3431 22.6718 9.67146 26.2492 5.91026C27.2777 4.83564 27.9037 4.79086 28.7534 6.04459C29.4689 7.11922 30.3185 8.14907 31.0787 9.2237C32.0178 8.41773 32.9121 7.56698 33.9406 6.85056C39.3962 2.86549 47.1324 3.67146 51.9619 8.59683C52.9009 9.53713 52.7221 10.0297 51.8724 10.8804C47.1771 15.4924 42.5712 20.2386 37.8311 24.8506C36.8473 25.7909 36.892 26.1938 38.0099 26.9103C42.9736 30.0446 50.5309 26.6864 51.5594 20.7759C51.9172 18.7162 51.6488 16.6565 52.2749 14.5968C54.1978 8.19385 59.4745 4.29832 66.1821 4.47743C72.8451 4.65653 78.077 8.95504 79.5527 15.4028C81.0284 21.8953 77.9876 28.5222 72.1743 31.2088C66.8082 33.7162 58.6248 33.0894 54.0189 26.2834ZM74.8573 18.761C74.8573 13.3879 70.9669 9.31325 65.8244 9.31325C60.7265 9.31325 56.702 13.5222 56.702 18.761C56.7467 23.8655 60.816 27.9849 65.8244 27.9401C70.9669 27.9401 74.8573 23.955 74.8573 18.761ZM32.1966 17.9103C32.3308 18.9849 32.4649 20.1491 32.9121 21.2685C33.4935 22.7013 34.0301 23.3282 35.4163 21.8058C38.636 18.358 41.9898 14.955 45.3884 11.6864C46.6852 10.4327 46.1039 9.98489 44.9412 9.4028C39.6645 6.62668 32.2414 11.5073 32.1966 17.9103Z" fill="#050505"/>
<path d="M72.085 39.2688C70.7882 42.4927 69.4914 45.7614 68.2393 48.9853C67.971 49.6569 67.9263 50.4629 66.9425 50.5076C65.8693 50.5972 65.8246 49.7017 65.5563 49.0748C64.2594 45.8061 63.0073 42.5375 61.2634 39.3136C61.2634 42.4479 61.2634 45.5375 61.2634 48.6718C61.2634 49.433 61.7105 50.5524 60.1454 50.5524C58.5356 50.5076 59.1616 49.3435 59.1616 48.627C59.1169 45.0002 59.1169 41.3733 59.1616 37.7464C59.1616 37.1644 58.5803 36.045 59.8324 36.045C60.9056 36.045 62.2024 35.4181 62.7838 37.1196C63.857 40.0748 65.1091 43.03 66.3165 45.9405C66.4506 46.2539 66.6742 46.5673 66.9872 47.1494C68.3735 43.7017 69.7597 40.5226 70.8329 37.2987C71.4143 35.5972 72.5769 36.045 73.6502 36.045C75.0364 36.045 74.5445 37.1644 74.5445 37.836C74.5892 41.5524 74.5445 45.2241 74.5892 48.9405C74.5892 49.7912 74.7234 50.5524 73.4266 50.5524C72.085 50.5524 72.5322 49.6121 72.4875 48.9853C72.4428 45.7614 72.4875 42.5823 72.4875 39.3584C72.3534 39.3136 72.2192 39.2688 72.085 39.2688Z" fill="#0D0D0D"/>
<path d="M37.7417 50.3731C39.6198 45.8059 41.4086 41.2388 43.3314 36.7164C43.8233 35.5522 45.5226 35.6417 46.0145 36.8059C47.7585 40.9253 49.3683 45.1343 51.0229 49.2985C51.157 49.6567 51.5148 50.2835 50.9781 50.4626C50.3074 50.6865 49.4577 50.8656 48.9658 50.1492C48.6528 49.7462 48.474 49.2537 48.3398 48.7611C48.0268 47.4626 47.3113 46.9701 45.9698 47.1492C45.0307 47.2835 44.0469 47.2388 43.1078 47.1492C41.7663 47.0149 41.0061 47.4626 40.7825 48.8059C40.4695 50.3731 39.441 50.8208 37.7417 50.3731ZM44.6282 38.6417C44.0469 40.1194 43.5997 41.1044 43.1973 42.1343C41.9452 45.4477 41.9452 45.3582 45.5226 45.3582C46.9536 45.3582 46.9535 44.8656 46.5511 43.8358C45.925 42.2238 45.3884 40.6567 44.6282 38.6417Z" fill="#0D0D0D"/>
<path d="M10.151 35.7759C11.6267 35.8654 13.1471 36.3132 13.9073 38.0147C14.1756 38.5968 14.757 39.358 13.8626 39.7162C13.326 39.9401 12.3422 40.1192 12.0292 39.0893C11.9397 38.8654 11.8503 38.6863 11.7162 38.5072C11.0901 37.7013 10.1958 37.6117 9.3014 37.8804C8.45176 38.1042 7.91515 38.7759 7.82571 39.6714C7.73628 40.5669 8.18345 41.2386 8.98837 41.5968C9.97216 42.0445 11.0454 42.4027 12.0739 42.8505C14.3098 43.8804 15.1594 45.4475 14.7122 47.6416C14.3545 49.5669 12.7447 50.8654 10.5535 50.9998C8.0493 51.1341 6.35003 50.149 5.63454 48.0893C5.45567 47.5968 4.91906 46.8356 5.7687 46.6117C6.35003 46.4774 7.2891 46.1192 7.60212 47.1938C7.78099 47.8654 8.22817 48.358 8.85422 48.6714C10.2405 49.343 11.3584 48.8953 12.0739 47.6863C12.8341 46.4326 12.4316 45.358 11.1348 44.7311C10.2852 44.3281 9.34611 44.0147 8.45176 43.7013C6.037 42.761 5.09793 41.3281 5.50039 39.1789C5.94757 37.0744 7.60212 35.8207 10.151 35.7759Z" fill="#0D0D0D"/>
<path d="M23.119 43.2092C23.119 41.3733 23.119 39.5375 23.119 37.6569C23.119 36.8062 22.806 35.9106 24.3264 35.9106C25.7126 35.9554 25.3996 36.8062 25.3996 37.5674C25.3996 40.6121 25.489 43.6121 25.3549 46.6569C25.2655 48.2689 25.8468 48.7166 27.3672 48.5375C28.1721 48.448 28.977 48.5375 29.7819 48.4927C30.408 48.448 30.721 48.6271 30.6763 49.3435C30.6316 49.9703 30.6763 50.5077 29.7819 50.5077C27.8591 50.5077 25.9362 50.5077 24.0134 50.5077C23.0296 50.5077 23.0743 49.8808 23.0743 49.1644C23.1637 47.1942 23.119 45.1793 23.119 43.2092Z" fill="#0D0D0D"/>
<path d="M74.8574 18.7613C74.8574 23.9553 70.9669 27.9404 65.8691 27.9851C60.8607 27.9851 56.7467 23.8657 56.7467 18.806C56.702 13.5672 60.7713 9.35828 65.8691 9.35828C70.9669 9.3135 74.8127 13.3434 74.8574 18.7613Z" fill="#FDFDFD"/>
</g>
<defs>
<clipPath id="clip0_133_5890">
<rect width="80" height="51" fill="white"/>
</clipPath>
</defs>
</svg>
